<?xml version="1.0" standalone="no"?>
<!DOCTYPE svg PUBLIC "-//W3C//DTD SVG 20010904//EN"
 "http://www.w3.org/TR/2001/REC-SVG-20010904/DTD/svg10.dtd">
<svg version="1.0" xmlns="http://www.w3.org/2000/svg"
 width="750.000000pt" height="750.000000pt" viewBox="0 0 750.000000 750.000000"
 preserveAspectRatio="xMidYMid meet">
<metadata>
Created by potrace 1.11, written by Peter Selinger 2001-2013
</metadata>
<g transform="translate(0.000000,750.000000) scale(0.100000,-0.100000)"
fill="#000000" stroke="none">
<path d="M2630 7479 c-88 -40 -162 -60 -290 -79 -36 -5 -83 -12 -105 -15 -30
-5 -178 -38 -225 -50 -201 -54 -672 -159 -815 -181 -16 -3 -52 -9 -80 -14 -27
-5 -72 -12 -100 -16 -27 -3 -108 -19 -180 -35 -71 -17 -138 -32 -148 -34 -10
-2 -26 -6 -35 -9 -9 -3 -37 -8 -62 -11 -25 -4 -61 -10 -80 -14 -19 -4 -84 -9
-145 -10 -156 -3 -211 -34 -258 -142 -101 -230 -53 -449 123 -566 115 -75 236
-103 479 -108 163 -4 177 -6 227 -30 55 -27 82 -60 104 -128 9 -30 12 -574 12
-2468 0 -2038 -3 -2469 -17 -2539 -6 -29 -46 -87 -79 -114 -77 -61 -154 -73
-509 -81 -212 -4 -290 -15 -350 -48 -82 -46 -95 -97 -95 -384 0 -256 8 -296
69 -345 75 -59 -31 -56 1950 -53 998 1 1828 5 1844 9 140 31 194 73 214 167
12 52 15 249 6 317 -2 18 -7 68 -10 110 -14 190 -57 226 -265 222 -307 -6
-390 -3 -510 20 -30 6 -68 13 -85 16 -65 11 -181 46 -220 67 -66 36 -121 101
-147 176 -22 64 -22 77 -23 520 -1 250 2 481 7 514 10 74 33 115 78 142 32 18
49 20 190 17 430 -9 673 -5 765 12 11 2 47 7 80 10 33 4 67 9 75 11 8 2 36 6
63 10 78 9 276 52 464 99 930 233 1726 648 2253 1176 151 150 239 256 336 403
164 248 270 508 328 807 25 127 30 188 30 400 1 200 -6 266 -39 395 -59 225
-222 534 -394 747 -69 86 -235 255 -290 296 -20 15 -45 35 -56 45 -35 32 -217
152 -310 205 -77 43 -164 86 -300 148 -119 53 -453 157 -574 179 -9 1 -34 6
-56 10 -22 4 -49 9 -60 11 -68 11 -84 13 -120 18 -22 4 -53 8 -70 11 -16 3
-68 7 -115 10 -47 4 -96 8 -110 11 -31 5 -433 5 -520 -1 -36 -2 -105 -6 -155
-9 -242 -15 -257 -19 -705 -199 -452 -181 -495 -196 -569 -204 -79 -7 -134 10
-169 53 -45 54 -55 102 -58 279 -1 88 -3 168 -3 179 -1 10 -16 33 -35 52 -41
41 -86 45 -156 13z m1665 -1223 c28 -4 57 -8 65 -10 8 -1 33 -6 55 -11 65 -12
176 -43 235 -66 30 -11 67 -24 82 -29 51 -16 235 -108 317 -159 233 -144 429
-338 508 -501 67 -138 125 -362 138 -530 16 -199 9 -330 -26 -494 -57 -270
-174 -490 -364 -682 -152 -154 -312 -258 -544 -355 -53 -22 -105 -44 -116 -49
-77 -32 -248 -82 -355 -104 -214 -42 -449 -39 -633 9 -34 9 -69 18 -77 20 -8
2 -42 13 -75 25 -68 23 -234 59 -310 65 -110 10 -242 64 -299 122 -34 36 -69
109 -81 170 -3 15 -5 78 -4 138 1 61 2 531 2 1045 l2 935 23 50 c53 115 186
187 517 279 387 109 742 158 940 132z"/>
</g>
</svg>
